{
  "accessors": [
    {
      "bufferView": 2,
      "componentType": 5126,
      "count": 283,
      "max": [
        16.936716079711914,
        63.18450164794922,
        161.4357147216797
      ],
      "min": [
        -69.8149642944336,
        -17.060626983642578,
        0.0
      ],
      "type": "VEC3"
    },
    {
      "bufferView": 2,
      "byteOffset": 3396,
      "componentType": 5126,
      "count": 283,
      "max": [
        0.9708439707756042,
        0.9442405104637146,
        0.9766486287117004
      ],
      "min": [
        -0.9274031519889832,
        -1.0,
        -1.0
      ],
      "type": "VEC3"
    },
    {
      "bufferView": 1,
      "componentType": 5126,
      "count": 283,
      "max": [
        1.0,
        1.0
      ],
      "min": [
        0.0,
        0.0
      ],
      "type": "VEC2"
    },
    {
      "bufferView": 0,
      "componentType": 5125,
      "count": 1584,
      "type": "SCALAR"
    },
    {
      "bufferView": 2,
      "byteOffset": 6792,
      "componentType": 5126,
      "count": 648,
      "max": [
        42.8378791809082,
        104.22444152832031,
        211.77561950683594
      ],
      "min": [
        -103.03483581542969,
        -37.15692138671875,
        80.66484069824219
      ],
      "type": "VEC3"
    },
    {
      "bufferView": 2,
      "byteOffset": 14568,
      "componentType": 5126,
      "count": 648,
      "max": [
        0.9574618935585022,
        0.9361667037010193,
        0.9753443002700806
      ],
      "min": [
        -0.9574618935585022,
        -0.9361668229103088,
        -0.9753443002700806
      ],
      "type": "VEC3"
    },
    {
      "bufferView": 1,
      "byteOffset": 2264,
      "componentType": 5126,
      "count": 648,
      "max": [
        1.0,
        1.0
      ],
      "min": [
        0.0,
        0.0
      ],
      "type": "VEC2"
    },
    {
      "bufferView": 0,
      "byteOffset": 6336,
      "componentType": 5125,
      "count": 648,
      "type": "SCALAR"
    }
  ],
  "asset": {
    "extras": {
      "author": "ana22lu (https://sketchfab.com/ana22lu)",
      "license": "CC-BY-4.0 (http://creativecommons.org/licenses/by/4.0/)",
      "source": "https://sketchfab.com/3d-models/arvore-2b5babd1cf6e476fb157509dd2586697",
      "title": "Arvore"
    },
    "generator": "Sketchfab-12.66.0",
    "version": "2.0"
  },
  "bufferViews": [
    {
      "buffer": 0,
      "byteLength": 8928,
      "name": "floatBufferViews",
      "target": 34963
    },
    {
      "buffer": 0,
      "byteLength": 7448,
      "byteOffset": 8928,
      "byteStride": 8,
      "name": "floatBufferViews",
      "target": 34962
    },
    {
      "buffer": 0,
      "byteLength": 22344,
      "byteOffset": 16376,
      "byteStride": 12,
      "name": "floatBufferViews",
      "target": 34962
    }
  ],
  "buffers": [
    {
      "byteLength": 38720,
      "uri": "scene.bin"
    }
  ],
  "materials": [
    {
      "doubleSided": true,
      "name": "01_-_Default",
      "pbrMetallicRoughness": {
        "baseColorFactor": [
          0.305882,
          0.164706,
          0.0392157,
          1.0
        ],
        "metallicFactor": 0.0,
        "roughnessFactor": 0.8929713596497552
      }
    },
    {
      "doubleSided": true,
      "name": "01_-_Default_0",
      "pbrMetallicRoughness": {
        "baseColorFactor": [
          0.2,
          0.509804,
          0.0784314,
          1.0
        ],
        "metallicFactor": 0.0,
        "roughnessFactor": 0.8929713596497552
      }
    }
  ],
  "meshes": [
    {
      "name": "Box001_01 - Default_0",
      "primitives": [
        {
          "attributes": {
            "NORMAL": 1,
            "POSITION": 0,
            "TEXCOORD_0": 2
          },
          "indices": 3,
          "material": 0,
          "mode": 4
        }
      ]
    },
    {
      "name": "Box001_01 - Default_0",
      "primitives": [
        {
          "attributes": {
            "NORMAL": 5,
            "POSITION": 4,
            "TEXCOORD_0": 6
          },
          "indices": 7,
          "material": 1,
          "mode": 4
        }
      ]
    }
  ],
  "nodes": [
    {
      "children": [
        1
      ],
      "matrix": [
        1.0,
        0.0,
        0.0,
        0.0,
        0.0,
        2.220446049250313e-16,
        -1.0,
        0.0,
        0.0,
        1.0,
        2.220446049250313e-16,
        0.0,
        0.0,
        0.0,
        0.0,
        1.0
      ],
      "name": "Sketchfab_model"
    },
    {
      "children": [
        2
      ],
      "matrix": [
        1.0,
        0.0,
        0.0,
        0.0,
        0.0,
        0.0,
        1.0,
        0.0,
        0.0,
        -1.0,
        0.0,
        0.0,
        0.0,
        0.0,
        0.0,
        1.0
      ],
      "name": "4169a1fdf8514fa8bb87405f021306a1.fbx"
    },
    {
      "children": [
        3
      ],
      "name": "RootNode"
    },
    {
      "children": [
        4,
        5
      ],
      "matrix": [
        1.0,
        0.0,
        0.0,
        0.0,
        0.0,
        2.220446049250313e-16,
        -1.0,
        0.0,
        0.0,
        1.0,
        2.220446049250313e-16,
        0.0,
        -0.6172833442687988,
        0.0,
        -0.633183479309082,
        1.0
      ],
      "name": "Box001"
    },
    {
      "mesh": 0,
      "name": "Box001_01 - Default_0"
    },
    {
      "mesh": 1,
      "name": "Box001_01 - Default_0"
    }
  ],
  "scene": 0,
  "scenes": [
    {
      "name": "Sketchfab_Scene",
      "nodes": [
        0
      ]
    }
  ]
}
